<svg width="17" height="13" viewBox="0 0 17 13" fill="none" xmlns="http://www.w3.org/2000/svg">
<path d="M6.63528 2.13192C6.31619 2.13192 6.01229 2.19777 5.72359 2.32945C5.4349 2.46114 5.15886 2.63588 4.89548 2.85367C4.63717 3.0664 4.389 3.30951 4.15095 3.58301C3.91796 3.85145 3.6951 4.12496 3.48238 4.40353C3.29498 4.65171 3.11264 4.93281 2.93537 5.24683C2.7581 5.55579 2.60109 5.88501 2.46434 6.23449C2.33265 6.58396 2.22629 6.94357 2.14525 7.31331C2.06421 7.68305 2.02369 8.05025 2.02369 8.41492C2.02369 8.73908 2.07434 9.03537 2.17564 9.30381C2.282 9.57225 2.42128 9.8027 2.59349 9.99517C2.7657 10.1826 2.9607 10.3295 3.17849 10.4358C3.39628 10.5422 3.62166 10.5954 3.85465 10.5954C4.23452 10.5954 4.60425 10.5422 4.96386 10.4358C5.32347 10.3295 5.66788 10.1851 5.9971 10.0028C6.33138 9.81537 6.64794 9.59758 6.94677 9.3494C7.2456 9.10122 7.5191 8.83531 7.76728 8.55168C8.02052 8.26298 8.24591 7.96415 8.44344 7.65519C8.64604 7.34117 8.81824 7.03221 8.96006 6.72831C9.09681 6.42948 9.21331 6.08254 9.30954 5.68748C9.41084 5.29242 9.46149 4.89229 9.46149 4.4871C9.46149 4.31996 9.45136 4.15788 9.4311 4.00087C9.4159 3.84386 9.38045 3.69191 9.32473 3.54503C9.27915 3.40828 9.18798 3.25886 9.05123 3.09678C8.91448 2.92964 8.73214 2.77516 8.50422 2.63335C8.28137 2.49153 8.01293 2.3725 7.6989 2.27627C7.38994 2.18004 7.0354 2.13192 6.63528 2.13192ZM11.4064 4.7606C11.4064 5.07969 11.3532 5.43677 11.2469 5.83183C11.1456 6.22689 10.9987 6.63461 10.8062 7.055C10.6188 7.47539 10.3909 7.89324 10.1225 8.30856C9.85402 8.71882 9.55265 9.10122 9.21837 9.45576C8.69669 10.0078 8.20539 10.4662 7.74449 10.8309C7.28358 11.1905 6.82521 11.4792 6.36937 11.697C5.91353 11.9097 5.44249 12.0566 4.95626 12.1376C4.4751 12.2237 3.94835 12.2668 3.37602 12.2668C3.07212 12.2668 2.77836 12.2111 2.49472 12.0996C2.21616 11.9882 1.95531 11.8388 1.7122 11.6514C1.47415 11.464 1.25383 11.2437 1.05123 10.9904C0.853699 10.7372 0.684025 10.4713 0.542208 10.1927C0.405456 9.91413 0.296561 9.62797 0.215523 9.3342C0.139549 9.04044 0.101562 8.7568 0.101562 8.4833C0.101562 8.00213 0.175003 7.47539 0.321885 6.90305C0.473832 6.32565 0.68909 5.74572 0.967659 5.16326C1.24623 4.5808 1.58051 4.0186 1.97051 3.47665C2.36557 2.92964 2.80368 2.44595 3.28485 2.02556C3.77108 1.60011 4.29529 1.26076 4.8575 1.00752C5.42477 0.754271 6.01736 0.627649 6.63528 0.627649C6.95436 0.627649 7.26585 0.647908 7.56975 0.688427C7.87871 0.723882 8.16994 0.779595 8.44344 0.855569C8.71695 0.926477 8.97019 1.01511 9.20318 1.12148C9.44123 1.22784 9.64889 1.3494 9.82616 1.48615C10.1908 1.75965 10.477 2.02049 10.6847 2.26867C10.8974 2.51179 11.0569 2.7625 11.1633 3.02081C11.2697 3.27406 11.3355 3.5425 11.3608 3.82613C11.3912 4.1047 11.4064 4.41619 11.4064 4.7606Z" fill="black"/>
<path d="M14.7872 10.0863C14.7822 10.1826 14.7442 10.4029 14.6733 10.7473C14.6581 10.9246 14.5011 11.1196 14.2022 11.3323C13.949 11.5096 13.7185 11.5982 13.5109 11.5982C12.9537 11.5982 12.6752 11.2893 12.6752 10.6713C12.6752 10.57 12.703 10.4485 12.7587 10.3067C12.8195 10.1598 12.898 10.0205 12.9942 9.88881C13.0955 9.75712 13.2095 9.64569 13.3361 9.55452C13.4678 9.45829 13.6071 9.41017 13.754 9.41017C13.8401 9.41017 13.9414 9.4355 14.0579 9.48615C14.1794 9.53173 14.2934 9.58998 14.3998 9.66089C14.5061 9.72673 14.5973 9.80017 14.6733 9.88121C14.7492 9.95718 14.7872 10.0256 14.7872 10.0863ZM16.1016 1.15946C16.1016 1.22024 16.0838 1.33673 16.0484 1.50894C16.018 1.68115 15.9775 1.88627 15.9268 2.12432C15.8812 2.35731 15.8255 2.61055 15.7597 2.88406C15.6989 3.1525 15.6381 3.41587 15.5773 3.67418C15.4558 4.19587 15.3241 4.72262 15.1823 5.25443C15.0405 5.78118 14.9341 6.30539 14.8632 6.82708C14.8531 6.94864 14.8455 7.05753 14.8404 7.15376C14.8404 7.25 14.8328 7.34623 14.8176 7.44246C14.8075 7.5387 14.7847 7.63999 14.7492 7.74636C14.7188 7.84765 14.6657 7.96668 14.5897 8.10343C14.3061 8.10343 14.0731 8.07811 13.8907 8.02746C13.7084 7.97174 13.5489 7.89324 13.4121 7.79194C13.402 7.7261 13.3944 7.64759 13.3893 7.55642C13.3893 7.46526 13.3893 7.36902 13.3893 7.26772C13.3893 6.90305 13.4045 6.50546 13.4349 6.07494C13.4653 5.63936 13.5286 5.19618 13.6248 4.74541C13.7261 4.2845 13.8122 3.84132 13.8831 3.41587C13.9591 2.98536 13.9971 2.5827 13.9971 2.2079C13.9971 2.06608 14.0224 1.87615 14.0731 1.6381C14.0933 1.51654 14.1161 1.41017 14.1414 1.31901C14.1668 1.22784 14.1997 1.1468 14.2402 1.07589C14.2858 0.999918 14.3415 0.931542 14.4074 0.870764C14.4732 0.80492 14.5593 0.736544 14.6657 0.665635C14.772 0.594727 14.8708 0.541545 14.962 0.506091C15.0531 0.465572 15.1468 0.445312 15.2431 0.445312C15.4457 0.445312 15.6305 0.513689 15.7977 0.650441C15.8939 0.721349 15.9673 0.799855 16.018 0.885958C16.0737 0.972061 16.1016 1.06323 16.1016 1.15946Z" fill="black"/>
</svg>
