<svg width="54" height="11" viewBox="0 0 54 11" fill="none" xmlns="http://www.w3.org/2000/svg">
<path d="M5.63086 2.58789C5.38477 2.58789 5.15039 2.63867 4.92773 2.74023C4.70508 2.8418 4.49219 2.97656 4.28906 3.14453C4.08984 3.30859 3.89844 3.49609 3.71484 3.70703C3.53516 3.91406 3.36328 4.125 3.19922 4.33984C3.05469 4.53125 2.91406 4.74805 2.77734 4.99023C2.64062 5.22852 2.51953 5.48242 2.41406 5.75195C2.3125 6.02148 2.23047 6.29883 2.16797 6.58398C2.10547 6.86914 2.07422 7.15234 2.07422 7.43359C2.07422 7.68359 2.11328 7.91211 2.19141 8.11914C2.27344 8.32617 2.38086 8.50391 2.51367 8.65234C2.64648 8.79688 2.79688 8.91016 2.96484 8.99219C3.13281 9.07422 3.30664 9.11523 3.48633 9.11523C3.7793 9.11523 4.06445 9.07422 4.3418 8.99219C4.61914 8.91016 4.88477 8.79883 5.13867 8.6582C5.39648 8.51367 5.64062 8.3457 5.87109 8.1543C6.10156 7.96289 6.3125 7.75781 6.50391 7.53906C6.69922 7.31641 6.87305 7.08594 7.02539 6.84766C7.18164 6.60547 7.31445 6.36719 7.42383 6.13281C7.5293 5.90234 7.61914 5.63477 7.69336 5.33008C7.77148 5.02539 7.81055 4.7168 7.81055 4.4043C7.81055 4.27539 7.80273 4.15039 7.78711 4.0293C7.77539 3.9082 7.74805 3.79102 7.70508 3.67773C7.66992 3.57227 7.59961 3.45703 7.49414 3.33203C7.38867 3.20312 7.24805 3.08398 7.07227 2.97461C6.90039 2.86523 6.69336 2.77344 6.45117 2.69922C6.21289 2.625 5.93945 2.58789 5.63086 2.58789ZM9.31055 4.61523C9.31055 4.86133 9.26953 5.13672 9.1875 5.44141C9.10938 5.74609 8.99609 6.06055 8.84766 6.38477C8.70312 6.70898 8.52734 7.03125 8.32031 7.35156C8.11328 7.66797 7.88086 7.96289 7.62305 8.23633C7.2207 8.66211 6.8418 9.01562 6.48633 9.29688C6.13086 9.57422 5.77734 9.79688 5.42578 9.96484C5.07422 10.1289 4.71094 10.2422 4.33594 10.3047C3.96484 10.3711 3.55859 10.4043 3.11719 10.4043C2.88281 10.4043 2.65625 10.3613 2.4375 10.2754C2.22266 10.1895 2.02148 10.0742 1.83398 9.92969C1.65039 9.78516 1.48047 9.61523 1.32422 9.41992C1.17188 9.22461 1.04102 9.01953 0.931641 8.80469C0.826172 8.58984 0.742188 8.36914 0.679688 8.14258C0.621094 7.91602 0.591797 7.69727 0.591797 7.48633C0.591797 7.11523 0.648438 6.70898 0.761719 6.26758C0.878906 5.82227 1.04492 5.375 1.25977 4.92578C1.47461 4.47656 1.73242 4.04297 2.0332 3.625C2.33789 3.20312 2.67578 2.83008 3.04688 2.50586C3.42188 2.17773 3.82617 1.91602 4.25977 1.7207C4.69727 1.52539 5.1543 1.42773 5.63086 1.42773C5.87695 1.42773 6.11719 1.44336 6.35156 1.47461C6.58984 1.50195 6.81445 1.54492 7.02539 1.60352C7.23633 1.6582 7.43164 1.72656 7.61133 1.80859C7.79492 1.89062 7.95508 1.98438 8.0918 2.08984C8.37305 2.30078 8.59375 2.50195 8.75391 2.69336C8.91797 2.88086 9.04102 3.07422 9.12305 3.27344C9.20508 3.46875 9.25586 3.67578 9.27539 3.89453C9.29883 4.10938 9.31055 4.34961 9.31055 4.61523Z" fill="white"/>
<path d="M19.1484 6.28516C19.1484 6.32031 19.1426 6.37109 19.1309 6.4375C19.123 6.50391 19.1113 6.57422 19.0957 6.64844C19.0801 6.72266 19.0625 6.79297 19.043 6.85938C19.0273 6.92578 19.0117 6.97656 18.9961 7.01172C18.8477 7.28516 18.6738 7.54688 18.4746 7.79688C18.2754 8.04297 18.0605 8.26172 17.8301 8.45312C17.6035 8.64453 17.3633 8.79688 17.1094 8.91016C16.8594 9.02344 16.6074 9.08008 16.3535 9.08008C16.1074 9.08008 15.8926 9.04492 15.709 8.97461C15.5254 8.9043 15.3691 8.8125 15.2402 8.69922C15.1152 8.58203 15.0117 8.44922 14.9297 8.30078C14.8516 8.15234 14.7891 8.00195 14.7422 7.84961C14.6953 7.69336 14.6641 7.54297 14.6484 7.39844C14.6328 7.25 14.625 7.11719 14.625 7C14.625 6.94141 14.6289 6.86914 14.6367 6.7832C14.6484 6.69336 14.6602 6.60156 14.6719 6.50781C14.6875 6.41016 14.6992 6.31641 14.707 6.22656C14.7188 6.13281 14.7246 6.05664 14.7246 5.99805C14.7246 5.91992 14.707 5.88086 14.6719 5.88086C14.5703 5.97852 14.4727 6.08203 14.3789 6.19141C14.2891 6.30078 14.1973 6.41992 14.1035 6.54883C14.0137 6.67773 13.9199 6.82031 13.8223 6.97656C13.7246 7.12891 13.6172 7.29883 13.5 7.48633C13.3945 7.6543 13.2832 7.83789 13.166 8.03711C13.0488 8.23633 12.9297 8.4375 12.8086 8.64062C12.6875 8.84375 12.5645 9.04102 12.4395 9.23242C12.3184 9.42383 12.1992 9.59375 12.082 9.74219C11.9648 9.88672 11.8535 10.0039 11.748 10.0938C11.6465 10.1836 11.5547 10.2285 11.4727 10.2285C11.3789 10.2285 11.3008 10.2266 11.2383 10.2227C11.1758 10.2188 11.123 10.2109 11.0801 10.1992C11.0371 10.1914 10.998 10.1816 10.9629 10.1699C10.9277 10.1582 10.8906 10.1445 10.8516 10.1289C10.8125 9.98438 10.7812 9.82812 10.7578 9.66016C10.7344 9.48828 10.7168 9.32422 10.7051 9.16797C10.6973 9.00781 10.6914 8.86328 10.6875 8.73438C10.6875 8.60547 10.6875 8.50977 10.6875 8.44727C10.6875 7.87695 10.7324 7.27344 10.8223 6.63672C10.916 6 11.0234 5.32422 11.1445 4.60938C11.2383 4.0625 11.3281 3.49414 11.4141 2.9043C11.5039 2.31055 11.5801 1.69531 11.6426 1.05859C11.6699 0.925781 11.7148 0.806641 11.7773 0.701172C11.8438 0.595703 11.9141 0.507812 11.9883 0.4375C12.0664 0.363281 12.1406 0.308594 12.2109 0.273438C12.2852 0.234375 12.3457 0.214844 12.3926 0.214844C12.4746 0.214844 12.5527 0.244141 12.627 0.302734C12.7012 0.357422 12.7676 0.431641 12.8262 0.525391C12.8848 0.619141 12.9297 0.724609 12.9609 0.841797C12.9961 0.955078 13.0137 1.07031 13.0137 1.1875C13.0137 1.22656 13.0117 1.26562 13.0078 1.30469C13.0039 1.34375 12.998 1.38281 12.9902 1.42188C12.9863 1.4375 12.9766 1.48633 12.9609 1.56836C12.9453 1.65039 12.9258 1.75 12.9023 1.86719C12.8828 1.98438 12.8594 2.11133 12.832 2.24805C12.8086 2.38086 12.7852 2.50977 12.7617 2.63477C12.7422 2.75977 12.7246 2.87109 12.709 2.96875C12.6934 3.0625 12.6816 3.12695 12.6738 3.16211C12.6699 3.19727 12.6562 3.27734 12.6328 3.40234C12.6133 3.52344 12.5879 3.67383 12.5566 3.85352C12.5293 4.0332 12.498 4.23242 12.4629 4.45117C12.4277 4.66602 12.3906 4.88672 12.3516 5.11328C12.3164 5.33594 12.2812 5.55664 12.2461 5.77539C12.2109 5.99023 12.1777 6.18555 12.1465 6.36133C12.1191 6.53711 12.0957 6.68555 12.0762 6.80664C12.0605 6.92773 12.0508 7.00586 12.0469 7.04102C12.043 7.08398 12.0352 7.14258 12.0234 7.2168C12.0156 7.29102 12.0059 7.37305 11.9941 7.46289C11.9824 7.54883 11.9688 7.64062 11.9531 7.73828C11.9375 7.83203 11.9238 7.91992 11.9121 8.00195C11.9473 7.96289 12.0078 7.88281 12.0938 7.76172C12.1797 7.63672 12.2773 7.49219 12.3867 7.32812C12.4961 7.16406 12.6113 6.99023 12.7324 6.80664C12.8574 6.61914 12.9746 6.44336 13.084 6.2793C13.1934 6.11523 13.2891 5.97266 13.3711 5.85156C13.457 5.72656 13.5137 5.64258 13.541 5.59961C13.5957 5.51758 13.666 5.42773 13.752 5.33008C13.8418 5.23242 13.9355 5.13672 14.0332 5.04297C14.1348 4.94531 14.2344 4.85352 14.332 4.76758C14.4336 4.67773 14.5234 4.60352 14.6016 4.54492C14.7734 4.41211 14.9336 4.33203 15.082 4.30469C15.2305 4.27344 15.3711 4.25781 15.5039 4.25781C15.5664 4.25781 15.627 4.27734 15.6855 4.31641C15.7441 4.35547 15.7969 4.41406 15.8438 4.49219C15.8906 4.56641 15.9277 4.66016 15.9551 4.77344C15.9863 4.88672 16.002 5.01953 16.002 5.17188C16.002 5.25391 15.9941 5.35352 15.9785 5.4707C15.9629 5.58398 15.9453 5.70898 15.9258 5.8457C15.9062 5.97852 15.8887 6.11719 15.873 6.26172C15.8574 6.40625 15.8496 6.54492 15.8496 6.67773C15.8496 6.77148 15.8555 6.88477 15.8672 7.01758C15.8828 7.14648 15.9121 7.27148 15.9551 7.39258C15.998 7.50977 16.0566 7.61133 16.1309 7.69727C16.209 7.7793 16.3086 7.82031 16.4297 7.82031C16.75 7.82031 17.0742 7.70703 17.4023 7.48047C17.7344 7.25391 18.0879 6.90234 18.4629 6.42578C18.5684 6.28906 18.6699 6.19336 18.7676 6.13867C18.8652 6.08398 18.9492 6.05664 19.0195 6.05664C19.0703 6.05664 19.1035 6.07422 19.1191 6.10938C19.1387 6.14062 19.1484 6.19922 19.1484 6.28516Z" fill="white"/>
<path d="M24.4629 2.6875C24.4629 2.74219 24.4551 2.80859 24.4395 2.88672C24.4277 2.96484 24.4082 3.04688 24.3809 3.13281C24.3535 3.21484 24.3223 3.29492 24.2871 3.37305C24.2559 3.44727 24.2188 3.50781 24.1758 3.55469H24.1816C24.0566 3.70312 23.7617 3.77734 23.2969 3.77734C23.2969 3.60938 23.2891 3.46484 23.2734 3.34375C23.2617 3.21875 23.2402 3.11914 23.209 3.04492C23.1816 2.98242 23.1328 2.92969 23.0625 2.88672C22.9922 2.84375 22.9121 2.80859 22.8223 2.78125C22.7363 2.75391 22.6484 2.73438 22.5586 2.72266C22.4688 2.70703 22.3906 2.69922 22.3242 2.69922C22.1562 2.69922 21.9922 2.70312 21.832 2.71094C21.6719 2.71875 21.5137 2.73438 21.3574 2.75781C21.2051 2.78125 21.0488 2.81445 20.8887 2.85742C20.7324 2.90039 20.5723 2.95508 20.4082 3.02148C20.291 3.06836 20.166 3.12695 20.0332 3.19727C19.9043 3.26758 19.7832 3.34766 19.6699 3.4375C19.5566 3.52344 19.459 3.61914 19.377 3.72461C19.2988 3.82617 19.25 3.93555 19.2305 4.05273L19.2363 4.04102C19.2363 4.13477 19.2676 4.24023 19.3301 4.35742C19.3926 4.4707 19.4766 4.58398 19.582 4.69727C19.6914 4.80664 19.8164 4.9082 19.957 5.00195C20.0977 5.0918 20.2461 5.1582 20.4023 5.20117C20.4141 5.20508 20.4473 5.2168 20.502 5.23633C20.5566 5.25586 20.623 5.2793 20.7012 5.30664C20.7793 5.33008 20.8613 5.35742 20.9473 5.38867C21.0371 5.41992 21.1191 5.44922 21.1934 5.47656C21.2715 5.5 21.3359 5.52148 21.3867 5.54102C21.4414 5.55664 21.4727 5.56641 21.4805 5.57031C22.3867 5.80078 23.0586 6.07812 23.4961 6.40234C23.9336 6.72656 24.1523 7.125 24.1523 7.59766C24.1523 7.75 24.1191 7.90234 24.0527 8.05469C23.9863 8.20312 23.9023 8.3457 23.8008 8.48242C23.6992 8.61914 23.5879 8.74609 23.4668 8.86328C23.3496 8.97656 23.2383 9.07227 23.1328 9.15039L23.1387 9.14453C23.0254 9.23438 22.8965 9.32617 22.752 9.41992C22.6113 9.51367 22.459 9.60547 22.2949 9.69531C22.1309 9.78516 21.9609 9.86914 21.7852 9.94727C21.6094 10.0254 21.4297 10.0938 21.2461 10.1523C21.0742 10.207 20.8926 10.2578 20.7012 10.3047C20.5137 10.3555 20.3262 10.3984 20.1387 10.4336C19.9512 10.4688 19.7695 10.4961 19.5938 10.5156C19.4219 10.5352 19.2656 10.5449 19.125 10.5449C19.0508 10.5449 18.959 10.5352 18.8496 10.5156C18.7441 10.5 18.6309 10.4766 18.5098 10.4453C18.3926 10.4141 18.2734 10.377 18.1523 10.334C18.0352 10.291 17.9297 10.2422 17.8359 10.1875C17.7422 10.1328 17.666 10.0742 17.6074 10.0117C17.5488 9.94922 17.5195 9.88281 17.5195 9.8125C17.5195 9.75 17.5312 9.67383 17.5547 9.58398C17.5781 9.49414 17.6113 9.4082 17.6543 9.32617C17.7012 9.24023 17.7539 9.16797 17.8125 9.10938C17.875 9.04688 17.9414 9.01562 18.0117 9.01562C18.1094 9.01562 18.2012 9.02734 18.2871 9.05078C18.373 9.07422 18.4688 9.10156 18.5742 9.13281C18.6836 9.16016 18.8086 9.1875 18.9492 9.21484C19.0938 9.23828 19.2715 9.25 19.4824 9.25C19.6934 9.25 19.9121 9.22852 20.1387 9.18555C20.3691 9.13867 20.5957 9.07812 20.8184 9.00391C21.041 8.92578 21.2539 8.83789 21.457 8.74023C21.6602 8.64258 21.8438 8.54102 22.0078 8.43555C22.0781 8.38867 22.1543 8.33594 22.2363 8.27734C22.3223 8.21484 22.4004 8.14844 22.4707 8.07812C22.5449 8.00391 22.6055 7.92773 22.6523 7.84961C22.7031 7.77148 22.7285 7.69141 22.7285 7.60938C22.7285 7.51562 22.6582 7.42578 22.5176 7.33984V7.3457C22.3105 7.2207 22.1055 7.125 21.9023 7.05859C21.6992 6.99219 21.5215 6.9375 21.3691 6.89453C20.9395 6.78516 20.416 6.61133 19.7988 6.37305H19.8047C19.5469 6.27148 19.2969 6.14062 19.0547 5.98047C18.8125 5.82031 18.6035 5.65234 18.4277 5.47656C18.0371 5.04297 17.8418 4.54297 17.8418 3.97656C17.8418 3.75391 17.9043 3.53711 18.0293 3.32617C18.1543 3.11523 18.3242 2.91797 18.5391 2.73438C18.7539 2.54688 19.002 2.375 19.2832 2.21875C19.5684 2.0625 19.8711 1.92969 20.1914 1.82031C20.5117 1.70703 20.8379 1.61914 21.1699 1.55664C21.5059 1.49414 21.8301 1.46289 22.1426 1.46289C22.2402 1.46289 22.3613 1.4707 22.5059 1.48633C22.6543 1.49805 22.8047 1.51758 22.957 1.54492C23.1133 1.56836 23.2617 1.59961 23.4023 1.63867C23.543 1.67383 23.6543 1.71484 23.7363 1.76172H23.7305C23.957 1.88281 24.1348 2.02734 24.2637 2.19531C24.3965 2.36328 24.4629 2.52734 24.4629 2.6875Z" fill="white"/>
<path d="M34.5586 7.04102C34.5586 7.08789 34.5527 7.14453 34.541 7.21094C34.5332 7.27344 34.5176 7.33984 34.4941 7.41016C34.4707 7.48047 34.4395 7.55273 34.4004 7.62695C34.3613 7.69727 34.3145 7.76172 34.2598 7.82031C34.0254 8.03516 33.7832 8.23047 33.5332 8.40625C33.2871 8.58203 33.0391 8.73242 32.7891 8.85742C32.543 8.98242 32.2988 9.07812 32.0566 9.14453C31.8184 9.21094 31.5938 9.24414 31.3828 9.24414C31.0664 9.24414 30.8027 9.18945 30.5918 9.08008C30.3848 8.9707 30.2188 8.82617 30.0938 8.64648C29.9688 8.4668 29.8809 8.26172 29.8301 8.03125C29.7793 7.79688 29.7539 7.55664 29.7539 7.31055C29.7539 7.2207 29.7578 7.11523 29.7656 6.99414C29.7773 6.87305 29.7871 6.75586 29.7949 6.64258C29.8066 6.52539 29.8164 6.42188 29.8242 6.33203C29.8359 6.23828 29.8418 6.17578 29.8418 6.14453C29.8418 6.11328 29.8379 6.07812 29.8301 6.03906C29.8262 6 29.8086 5.97852 29.7773 5.97461C29.6289 6.13477 29.4414 6.37695 29.2148 6.70117C28.9883 7.02148 28.7461 7.40039 28.4883 7.83789C28.332 8.10742 28.1621 8.39062 27.9785 8.6875C27.7949 8.98047 27.6113 9.25 27.4277 9.49609C27.248 9.74219 27.0762 9.94531 26.9121 10.1055C26.748 10.2656 26.6055 10.3457 26.4844 10.3457C26.3906 10.3457 26.3164 10.3438 26.2617 10.3398C26.2109 10.3398 26.168 10.334 26.1328 10.3223C26.1016 10.3145 26.0742 10.3008 26.0508 10.2812C26.0273 10.2656 25.998 10.2402 25.9629 10.2051C25.9238 10.0605 25.8926 9.90625 25.8691 9.74219C25.8457 9.57422 25.8281 9.41406 25.8164 9.26172C25.8086 9.10547 25.8027 8.96484 25.7988 8.83984C25.7988 8.71484 25.7988 8.62109 25.7988 8.55859C25.7988 7.98828 25.8438 7.38672 25.9336 6.75391C26.0273 6.11719 26.1348 5.44141 26.2559 4.72656C26.3496 4.17969 26.4395 3.62109 26.5254 3.05078C26.6152 2.47656 26.6934 1.87109 26.7598 1.23438C26.7871 1.09375 26.832 0.978516 26.8945 0.888672C26.9609 0.798828 27.0312 0.728516 27.1055 0.677734C27.1836 0.626953 27.2617 0.59375 27.3398 0.578125C27.4219 0.558594 27.4941 0.548828 27.5566 0.548828C27.7363 0.548828 27.875 0.623047 27.9727 0.771484C28.0703 0.916016 28.1191 1.11133 28.1191 1.35742C28.1191 1.41211 28.1133 1.49219 28.1016 1.59766C28.0898 1.70312 28.0723 1.82617 28.0488 1.9668C28.0293 2.10352 28.0059 2.25195 27.9785 2.41211C27.9551 2.56836 27.9277 2.72461 27.8965 2.88086C27.8691 3.03711 27.8418 3.1875 27.8145 3.33203C27.7871 3.47266 27.7617 3.59766 27.7383 3.70703C27.6445 4.14844 27.5547 4.58984 27.4688 5.03125C27.3867 5.46875 27.3125 5.88672 27.2461 6.28516C27.1797 6.68359 27.1211 7.05078 27.0703 7.38672C27.0234 7.72266 26.9883 8.00781 26.9648 8.24219C27.0156 8.17578 27.084 8.08008 27.1699 7.95508C27.2598 7.82617 27.3574 7.68555 27.4629 7.5332C27.5684 7.38086 27.6758 7.22266 27.7852 7.05859C27.8984 6.89062 28.0039 6.73438 28.1016 6.58984C28.1992 6.44141 28.2852 6.31055 28.3594 6.19727C28.4375 6.08398 28.4941 6.00391 28.5293 5.95703C28.6426 5.80078 28.7754 5.63281 28.9277 5.45312C29.084 5.26953 29.252 5.10156 29.4316 4.94922C29.6152 4.79297 29.8066 4.66406 30.0059 4.5625C30.209 4.45703 30.4121 4.4043 30.6152 4.4043C30.7637 4.4043 30.8828 4.49023 30.9727 4.66211C31.0664 4.83398 31.1133 5.05469 31.1133 5.32422C31.1133 5.40234 31.1055 5.50195 31.0898 5.62305C31.0742 5.74023 31.0566 5.86719 31.0371 6.00391C31.0176 6.14062 31 6.28125 30.9844 6.42578C30.9688 6.56641 30.9609 6.70117 30.9609 6.83008C30.9609 6.92383 30.9668 7.04102 30.9785 7.18164C30.9902 7.31836 31.0176 7.45117 31.0605 7.58008C31.1035 7.70898 31.166 7.81836 31.248 7.9082C31.3301 7.99805 31.4395 8.04297 31.5762 8.04297C31.7168 8.04297 31.8711 8.0293 32.0391 8.00195C32.2109 7.9707 32.3926 7.92188 32.584 7.85547C32.7754 7.78906 32.9746 7.70312 33.1816 7.59766C33.3887 7.49219 33.5957 7.36328 33.8027 7.21094C33.8379 7.1875 33.875 7.1582 33.9141 7.12305C33.957 7.08398 34 7.04688 34.043 7.01172C34.0859 6.97656 34.1309 6.94727 34.1777 6.92383C34.2285 6.90039 34.2793 6.88867 34.3301 6.88867C34.3848 6.88867 34.4355 6.90625 34.4824 6.94141C34.5332 6.97656 34.5586 7.00977 34.5586 7.04102Z" fill="white"/>
<path d="M36.6562 4.87891C36.6562 4.73047 36.6289 4.625 36.5742 4.5625C36.5234 4.5 36.4336 4.46875 36.3047 4.46875C36.2188 4.46875 36.1289 4.50781 36.0352 4.58594C35.9453 4.66406 35.8555 4.76758 35.7656 4.89648C35.6758 5.02148 35.5898 5.16797 35.5078 5.33594C35.4258 5.50391 35.3535 5.67773 35.291 5.85742C35.2324 6.0332 35.1836 6.20898 35.1445 6.38477C35.1094 6.56055 35.0918 6.72266 35.0918 6.87109C35.2988 6.69922 35.4961 6.52734 35.6836 6.35547C35.875 6.18359 36.041 6.01562 36.1816 5.85156C36.3262 5.68359 36.4414 5.51758 36.5273 5.35352C36.6133 5.18945 36.6562 5.03125 36.6562 4.87891ZM39.75 7.99023C39.4531 8.22461 39.1367 8.44531 38.8008 8.65234C38.4688 8.85547 38.1348 9.0332 37.7988 9.18555C37.4629 9.33789 37.1309 9.45898 36.8027 9.54883C36.4785 9.63477 36.1719 9.67773 35.8828 9.67773C35.5469 9.67773 35.2461 9.63086 34.9805 9.53711C34.7148 9.44336 34.4902 9.29688 34.3066 9.09766C34.123 8.89453 33.9824 8.63672 33.8848 8.32422C33.791 8.01172 33.7441 7.63867 33.7441 7.20508C33.7441 6.81836 33.7812 6.45312 33.8555 6.10938C33.9297 5.76562 34.0293 5.44922 34.1543 5.16016C34.2832 4.86719 34.4336 4.60547 34.6055 4.375C34.7773 4.14453 34.959 3.94922 35.1504 3.78906C35.3457 3.62891 35.5469 3.50586 35.7539 3.41992C35.9609 3.33398 36.1621 3.29102 36.3574 3.29102C36.5762 3.29102 36.7734 3.32812 36.9492 3.40234C37.125 3.47266 37.2754 3.57422 37.4004 3.70703C37.5254 3.83594 37.6211 3.99219 37.6875 4.17578C37.7578 4.35938 37.793 4.56445 37.793 4.79102C37.793 4.95508 37.748 5.14844 37.6582 5.37109C37.5723 5.58984 37.4277 5.83398 37.2246 6.10352C37.0215 6.36914 36.7539 6.65234 36.4219 6.95312C36.0938 7.25391 35.6875 7.56641 35.2031 7.89062C35.2305 7.95312 35.2617 8.02148 35.2969 8.0957C35.332 8.16602 35.3848 8.23242 35.4551 8.29492C35.5293 8.35742 35.627 8.4082 35.748 8.44727C35.8691 8.48633 36.0293 8.50586 36.2285 8.50586C36.4746 8.50586 36.7402 8.4707 37.0254 8.40039C37.3105 8.33008 37.5996 8.23633 37.8926 8.11914C38.1855 8.00195 38.4707 7.86914 38.748 7.7207C39.0293 7.56836 39.2871 7.41406 39.5215 7.25781C39.5645 7.22656 39.6055 7.20312 39.6445 7.1875C39.6875 7.16797 39.7305 7.1582 39.7734 7.1582C39.8633 7.1582 39.9258 7.17578 39.9609 7.21094C39.9961 7.24609 40.0137 7.32617 40.0137 7.45117C40.0137 7.47852 40.0039 7.51953 39.9844 7.57422C39.9648 7.62891 39.9414 7.68359 39.9141 7.73828C39.8867 7.79297 39.8574 7.84375 39.8262 7.89062C39.7949 7.9375 39.7676 7.9707 39.7441 7.99023H39.75Z" fill="white"/>
<path d="M42.2988 4.87305C42.2988 4.78711 42.2891 4.70508 42.2695 4.62695C42.2539 4.54883 42.2266 4.5 42.1875 4.48047C42.0547 4.48047 41.9121 4.53711 41.7598 4.65039C41.6113 4.76367 41.4688 4.92578 41.332 5.13672C41.1953 5.34375 41.0723 5.5957 40.9629 5.89258C40.8574 6.18555 40.7793 6.51172 40.7285 6.87109C40.9121 6.73438 41.0957 6.5918 41.2793 6.44336C41.4668 6.29102 41.6348 6.13281 41.7832 5.96875C41.9355 5.80469 42.0586 5.63281 42.1523 5.45312C42.25 5.26953 42.2988 5.07617 42.2988 4.87305ZM46.8691 5.95117C46.8691 6.02148 46.8164 6.15039 46.7109 6.33789C46.5078 6.63086 46.2812 6.92188 46.0312 7.21094C45.7852 7.49609 45.5215 7.76758 45.2402 8.02539C44.959 8.2832 44.666 8.52344 44.3613 8.74609C44.0566 8.96484 43.748 9.1543 43.4355 9.31445C43.123 9.47461 42.8105 9.60156 42.498 9.69531C42.1895 9.78516 41.8867 9.83008 41.5898 9.83008C40.9219 9.83008 40.4004 9.64258 40.0254 9.26758C39.6543 8.88867 39.4688 8.31836 39.4688 7.55664C39.4688 7.25195 39.4902 6.95312 39.5332 6.66016C39.5762 6.36328 39.6465 6.07227 39.7441 5.78711C39.8457 5.49805 39.9766 5.21484 40.1367 4.9375C40.2969 4.66016 40.4941 4.39062 40.7285 4.12891C40.8145 4.03125 40.9141 3.9375 41.0273 3.84766C41.1445 3.75781 41.2676 3.67773 41.3965 3.60742C41.5293 3.53711 41.666 3.48047 41.8066 3.4375C41.9512 3.39453 42.0938 3.37305 42.2344 3.37305C42.4414 3.37305 42.6191 3.41211 42.7676 3.49023C42.9199 3.56836 43.0449 3.67383 43.1426 3.80664C43.2402 3.93555 43.3125 4.08594 43.3594 4.25781C43.4062 4.42578 43.4297 4.60352 43.4297 4.79102C43.4297 5.13867 43.3008 5.5 43.043 5.875C42.7852 6.24609 42.4277 6.62695 41.9707 7.01758C41.8223 7.14258 41.6504 7.2793 41.4551 7.42773C41.2598 7.57227 41.041 7.73633 40.7988 7.91992C40.8066 8.01758 40.834 8.10938 40.8809 8.19531C40.9316 8.28125 40.998 8.35742 41.0801 8.42383C41.166 8.48633 41.2676 8.53711 41.3848 8.57617C41.502 8.61133 41.6348 8.62891 41.7832 8.62891C41.9746 8.62891 42.1777 8.60547 42.3926 8.55859C42.6074 8.50781 42.8203 8.44141 43.0312 8.35938C43.2422 8.27734 43.4473 8.18359 43.6465 8.07812C43.8457 7.96875 44.0273 7.85547 44.1914 7.73828C44.4805 7.53125 44.7578 7.30859 45.0234 7.07031C45.293 6.82812 45.5527 6.58203 45.8027 6.33203L46.1133 6.02148C46.3281 5.83008 46.5117 5.73438 46.6641 5.73438C46.7422 5.73438 46.7949 5.76172 46.8223 5.81641C46.8535 5.86719 46.8691 5.91211 46.8691 5.95117Z" fill="white"/>
<path d="M51.1523 4.66797C51.1523 4.76562 51.123 4.84766 51.0645 4.91406C51.0098 4.97656 50.9414 5.02734 50.8594 5.06641C50.7773 5.10547 50.6895 5.13477 50.5957 5.1543C50.502 5.16992 50.416 5.18164 50.3379 5.18945C50.0449 5.20898 49.752 5.23633 49.459 5.27148C49.166 5.30273 48.9004 5.33398 48.6621 5.36523C48.4277 5.39258 48.2344 5.41797 48.082 5.44141C47.9297 5.46094 47.8477 5.4707 47.8359 5.4707C47.8086 5.57617 47.7734 5.70898 47.7305 5.86914C47.6914 6.0293 47.6484 6.20312 47.6016 6.39062C47.5586 6.57422 47.5156 6.76367 47.4727 6.95898C47.4297 7.15039 47.3887 7.33398 47.3496 7.50977C47.3145 7.68555 47.2852 7.8457 47.2617 7.99023C47.2422 8.13086 47.2324 8.24219 47.2324 8.32422C47.2324 8.39062 47.2383 8.47461 47.25 8.57617C47.2656 8.67383 47.291 8.76953 47.3262 8.86328C47.3613 8.95703 47.4082 9.03906 47.4668 9.10938C47.5254 9.17578 47.5996 9.20898 47.6895 9.20898C47.752 9.20898 47.8281 9.19531 47.918 9.16797C48.0117 9.14062 48.1133 9.09766 48.2227 9.03906C48.3359 8.98047 48.4551 8.90625 48.5801 8.81641C48.7051 8.72266 48.8301 8.60938 48.9551 8.47656C48.9941 8.43359 49.0391 8.38867 49.0898 8.3418C49.1406 8.29492 49.1953 8.25391 49.2539 8.21875C49.3125 8.17969 49.375 8.14844 49.4414 8.125C49.5117 8.09766 49.584 8.08398 49.6582 8.08398C49.7754 8.08398 49.8555 8.10938 49.8984 8.16016C49.9414 8.21094 49.9629 8.27539 49.9629 8.35352C49.9629 8.50977 49.918 8.65234 49.8281 8.78125C49.7383 8.91016 49.625 9.05469 49.4883 9.21484C49.4258 9.28906 49.3262 9.39062 49.1895 9.51953C49.0566 9.64453 48.8965 9.76953 48.709 9.89453C48.5254 10.0156 48.3184 10.1211 48.0879 10.2109C47.8613 10.3047 47.6211 10.3516 47.3672 10.3516C47.1211 10.3516 46.9121 10.3184 46.7402 10.252C46.5723 10.1895 46.4316 10.1055 46.3184 10C46.209 9.89844 46.123 9.78125 46.0605 9.64844C45.998 9.51172 45.9512 9.37305 45.9199 9.23242C45.8926 9.0918 45.875 8.95312 45.8672 8.81641C45.8633 8.67969 45.8613 8.55664 45.8613 8.44727C45.8613 8.33008 45.873 8.19531 45.8965 8.04297C45.9238 7.88672 45.9551 7.72266 45.9902 7.55078C46.0254 7.37891 46.0645 7.20312 46.1074 7.02344C46.1543 6.83984 46.1953 6.66602 46.2305 6.50195C46.2656 6.33398 46.2949 6.17969 46.3184 6.03906C46.3457 5.89844 46.3594 5.7793 46.3594 5.68164C46.3594 5.6582 46.3555 5.63672 46.3477 5.61719C46.3438 5.59766 46.3301 5.58203 46.3066 5.57031C46.2832 5.55469 46.2461 5.54492 46.1953 5.54102C46.1445 5.5332 46.0742 5.5293 45.9844 5.5293C45.8828 5.5293 45.7734 5.52734 45.6562 5.52344C45.543 5.51562 45.4375 5.49414 45.3398 5.45898C45.2422 5.42383 45.1602 5.36914 45.0938 5.29492C45.0312 5.2168 45 5.10742 45 4.9668C45 4.87695 45.0137 4.80273 45.041 4.74414C45.0723 4.68164 45.1113 4.63281 45.1582 4.59766C45.209 4.55859 45.2656 4.53125 45.3281 4.51562C45.3945 4.5 45.4648 4.49023 45.5391 4.48633L46.7754 4.43359C46.7988 4.39062 46.8359 4.30664 46.8867 4.18164C46.9375 4.05664 46.9941 3.91016 47.0566 3.74219C47.123 3.57031 47.1895 3.38867 47.2559 3.19727C47.3223 3.00586 47.3828 2.82617 47.4375 2.6582C47.5156 2.41602 47.6152 2.24219 47.7363 2.13672C47.8574 2.03125 48.0176 1.97852 48.2168 1.97852C48.3457 1.97852 48.4453 1.99609 48.5156 2.03125C48.5859 2.0625 48.6367 2.10352 48.668 2.1543C48.6992 2.20508 48.7168 2.26367 48.7207 2.33008C48.7285 2.39258 48.7324 2.45312 48.7324 2.51172C48.7324 2.52734 48.7207 2.57227 48.6973 2.64648C48.6777 2.7207 48.6504 2.8125 48.6152 2.92188C48.5801 3.02734 48.541 3.14453 48.498 3.27344C48.4551 3.40234 48.4102 3.5332 48.3633 3.66602C48.3203 3.79492 48.2773 3.91992 48.2344 4.04102C48.1953 4.1582 48.1621 4.25977 48.1348 4.3457C48.1816 4.3418 48.2578 4.33398 48.3633 4.32227C48.4727 4.31055 48.5977 4.29883 48.7383 4.28711C48.8789 4.27148 49.0254 4.25781 49.1777 4.24609C49.334 4.23047 49.4785 4.2168 49.6113 4.20508C49.748 4.18945 49.8652 4.17773 49.9629 4.16992C50.0645 4.16211 50.1309 4.1582 50.1621 4.1582C50.373 4.1582 50.543 4.16992 50.6719 4.19336C50.8047 4.21289 50.9062 4.24414 50.9766 4.28711C51.0469 4.33008 51.0938 4.38281 51.1172 4.44531C51.1406 4.50781 51.1523 4.58203 51.1523 4.66797Z" fill="white"/>
<path d="M52.6523 8.72266C52.6484 8.79688 52.6191 8.9668 52.5645 9.23242C52.5527 9.36914 52.4316 9.51953 52.2012 9.68359C52.0059 9.82031 51.8281 9.88867 51.668 9.88867C51.2383 9.88867 51.0234 9.65039 51.0234 9.17383C51.0234 9.0957 51.0449 9.00195 51.0879 8.89258C51.1348 8.7793 51.1953 8.67188 51.2695 8.57031C51.3477 8.46875 51.4355 8.38281 51.5332 8.3125C51.6348 8.23828 51.7422 8.20117 51.8555 8.20117C51.9219 8.20117 52 8.2207 52.0898 8.25977C52.1836 8.29492 52.2715 8.33984 52.3535 8.39453C52.4355 8.44531 52.5059 8.50195 52.5645 8.56445C52.623 8.62305 52.6523 8.67578 52.6523 8.72266ZM53.666 1.83789C53.666 1.88477 53.6523 1.97461 53.625 2.10742C53.6016 2.24023 53.5703 2.39844 53.5312 2.58203C53.4961 2.76172 53.4531 2.95703 53.4023 3.16797C53.3555 3.375 53.3086 3.57812 53.2617 3.77734C53.168 4.17969 53.0664 4.58594 52.957 4.99609C52.8477 5.40234 52.7656 5.80664 52.7109 6.20898C52.7031 6.30273 52.6973 6.38672 52.6934 6.46094C52.6934 6.53516 52.6875 6.60938 52.6758 6.68359C52.668 6.75781 52.6504 6.83594 52.623 6.91797C52.5996 6.99609 52.5586 7.08789 52.5 7.19336C52.2812 7.19336 52.1016 7.17383 51.9609 7.13477C51.8203 7.0918 51.6973 7.03125 51.5918 6.95312C51.584 6.90234 51.5781 6.8418 51.5742 6.77148C51.5742 6.70117 51.5742 6.62695 51.5742 6.54883C51.5742 6.26758 51.5859 5.96094 51.6094 5.62891C51.6328 5.29297 51.6816 4.95117 51.7559 4.60352C51.834 4.24805 51.9004 3.90625 51.9551 3.57812C52.0137 3.24609 52.043 2.93555 52.043 2.64648C52.043 2.53711 52.0625 2.39062 52.1016 2.20703C52.1172 2.11328 52.1348 2.03125 52.1543 1.96094C52.1738 1.89062 52.1992 1.82812 52.2305 1.77344C52.2656 1.71484 52.3086 1.66211 52.3594 1.61523C52.4102 1.56445 52.4766 1.51172 52.5586 1.45703C52.6406 1.40234 52.7168 1.36133 52.7871 1.33398C52.8574 1.30273 52.9297 1.28711 53.0039 1.28711C53.1602 1.28711 53.3027 1.33984 53.4316 1.44531C53.5059 1.5 53.5625 1.56055 53.6016 1.62695C53.6445 1.69336 53.666 1.76367 53.666 1.83789Z" fill="white"/>
</svg>
